<?xml version="1.0" encoding="UTF-8"?>
<svg viewBox="0 0 607.02551 515.29456" xmlns="http://www.w3.org/2000/svg" xmlns:xlink="http://www.w3.org/1999/xlink">
 <defs>
  <linearGradient id="e">
   <stop offset="0"/>
   <stop stop-color="#0c1209" offset=".3935"/>
   <stop stop-color="#080f08" offset=".6833"/>
   <stop stop-color="#223224" offset=".8213"/>
   <stop stop-color="#2b4d38" offset="1"/>
  </linearGradient>
  <linearGradient id="d">
   <stop stop-color="#3a3a3a" offset="0"/>
   <stop stop-color="#181818" offset="1"/>
  </linearGradient>
  <linearGradient id="b">
   <stop stop-color="#c5c5c5" offset="0"/>
   <stop stop-color="#333" offset="1"/>
  </linearGradient>
  <linearGradient id="a">
   <stop offset="0"/>
   <stop stop-color="#454545" offset=".4194"/>
   <stop offset=".8387"/>
   <stop stop-color="#a2a2a2" offset="1"/>
  </linearGradient>
  <linearGradient id="bi" x1="756.14" x2="761.4" y1="839.68" y2="832.24" gradientUnits="userSpaceOnUse" spreadMethod="reflect">
   <stop stop-color="#0b0b0b" offset="0"/>
   <stop offset=".0267"/>
   <stop stop-color="#121212" offset=".3935"/>
   <stop stop-color="#313131" offset=".6833"/>
   <stop stop-color="#2a2a2b" offset=".8213"/>
   <stop stop-color="#282828" offset="1"/>
  </linearGradient>
  <linearGradient id="ax" x1="370" x2="371.12" y1="292.74" y2="306.13" gradientUnits="userSpaceOnUse">
   <stop offset="0"/>
   <stop stop-color="#141414" offset=".0619"/>
   <stop stop-color="#444" offset="1"/>
  </linearGradient>
  <linearGradient id="au" x1="1098.6" x2="1101.9" y1="945.29" y2="940" gradientUnits="userSpaceOnUse" spreadMethod="reflect">
   <stop stop-color="#282828" offset="0"/>
   <stop stop-color="#161616" offset=".1787"/>
   <stop offset="1"/>
  </linearGradient>
  <linearGradient id="bw" x1="426.44" x2="556.15" y1="531.11" y2="667.56" gradientUnits="userSpaceOnUse">
   <stop stop-color="#0b0b0b" offset="0"/>
   <stop offset=".0267"/>
   <stop stop-color="#121212" offset=".3722"/>
   <stop stop-color="#777868" offset=".6833"/>
   <stop stop-color="#2d302f" offset=".8419"/>
   <stop stop-color="#4ea797" offset="1"/>
  </linearGradient>
  <linearGradient id="bs" x1="452.17" x2="635.96" gradientUnits="userSpaceOnUse">
   <stop stop-color="#0f0f0f" offset="0"/>
   <stop stop-color="#0f0f0f" stop-opacity="0" offset="1"/>
  </linearGradient>
  <linearGradient id="bx" x1="344.95" x2="190.05" y1="411.94" y2="152.97" gradientUnits="userSpaceOnUse">
   <stop stop-color="#181818" offset="0"/>
   <stop offset=".2837"/>
   <stop stop-color="#282828" offset=".8387"/>
   <stop stop-color="#999" offset="1"/>
  </linearGradient>
  <linearGradient id="br" x1="-237.34" x2="296.63" y1="445.15" y2="351.46" gradientUnits="userSpaceOnUse" xlink:href="#a"/>
  <linearGradient id="bq" x1="120.16" x2="93.289" y1="416.82" y2="385.69" gradientUnits="userSpaceOnUse" xlink:href="#a"/>
  <linearGradient id="bp" x1="91.397" x2="112.88" y1="415.47" y2="400.09" gradientUnits="userSpaceOnUse" xlink:href="#a"/>
  <linearGradient id="bo" x1="91.005" x2="74.474" y1="171.44" y2="151.64" gradientUnits="userSpaceOnUse" xlink:href="#a"/>
  <linearGradient id="bn" x1="501.03" x2="462.46" y1="357.47" y2="295.82" gradientTransform="matrix(1.0079 0 0 .82534 -7.7474 58.25)" gradientUnits="userSpaceOnUse" xlink:href="#a" spreadMethod="reflect"/>
  <linearGradient id="bm" x1="72.172" x2="95.457" y1="487.78" y2="487.46" gradientTransform="matrix(-1 0 0 1 181.04 166.17)" gradientUnits="userSpaceOnUse" xlink:href="#a"/>
  <linearGradient id="bl" x1="108.87" x2="85.586" y1="487.28" y2="487.61" gradientUnits="userSpaceOnUse" xlink:href="#a"/>
  <linearGradient id="bk" x1="90.136" x2="123.86" y1="626" y2="659.72" gradientUnits="userSpaceOnUse" xlink:href="#a"/>
  <linearGradient id="bj" x1="326.22" x2="428.75" y1="638.86" y2="515.9" gradientUnits="userSpaceOnUse" xlink:href="#a" spreadMethod="reflect"/>
  <linearGradient id="bh" x1="272.65" x2="417.46" y1="741.64" y2="511.49" gradientUnits="userSpaceOnUse" xlink:href="#a" spreadMethod="reflect"/>
  <linearGradient id="bg" x1="81.165" x2="183.15" y1="577.59" y2="337.8" gradientTransform="matrix(1.0097 0 0 .76674 2.7156 90.012)" gradientUnits="userSpaceOnUse" xlink:href="#a"/>
  <linearGradient id="bf" x1="503.05" x2="584.75" y1="314.31" y2="334.64" gradientTransform="matrix(.98698 -.07811 .07732 .99695 -19.493 57.485)" gradientUnits="userSpaceOnUse" xlink:href="#a" spreadMethod="reflect"/>
  <linearGradient id="be" x1="530.13" x2="418.48" y1="365.4" y2="248.97" gradientTransform="matrix(1.0079 0 0 .82534 -7.7474 58.25)" gradientUnits="userSpaceOnUse" xlink:href="#b" spreadMethod="reflect"/>
  <linearGradient id="bd" x1="517.81" x2="522.21" y1="337.06" y2="337.81" gradientUnits="userSpaceOnUse" xlink:href="#a" spreadMethod="reflect"/>
  <linearGradient id="bc" x1="461.08" x2="465.57" y1="353.99" y2="354.74" gradientUnits="userSpaceOnUse" xlink:href="#a" spreadMethod="reflect"/>
  <linearGradient id="bb" x1="340.12" x2="355.09" gradientUnits="userSpaceOnUse" xlink:href="#b"/>
  <linearGradient id="ba" x1="398.69" x2="414.28" gradientUnits="userSpaceOnUse" xlink:href="#b"/>
  <linearGradient id="az" x1="381.3" x2="393.85" y1="290.48" y2="273.51" gradientUnits="userSpaceOnUse" xlink:href="#b"/>
  <linearGradient id="ay" x1="345.04" x2="332.55" y1="271.47" y2="291.62" gradientUnits="userSpaceOnUse" xlink:href="#b"/>
  <linearGradient id="aw" x1="329.03" x2="500.84" y1="165.12" y2="336.93" gradientUnits="userSpaceOnUse" xlink:href="#a"/>
  <linearGradient id="av" x1="409.14" x2="509.82" y1="792.68" y2="532.24" gradientUnits="userSpaceOnUse" xlink:href="#a" spreadMethod="reflect"/>
  <linearGradient id="bv" x1="364.67" x2="598.65" y1="620.54" y2="755.63" gradientUnits="userSpaceOnUse" xlink:href="#a"/>
  <linearGradient id="bu" x1="491.01" x2="594.06" y1="548.27" y2="643.7" gradientUnits="userSpaceOnUse" xlink:href="#e"/>
  <linearGradient id="bt" x1="-154.89" x2="488.71" y1="-36.171" y2="181.62" gradientUnits="userSpaceOnUse" xlink:href="#a"/>
  <linearGradient id="ca" x1="385.36" x2="384.06" y1="566.64" y2="441.17" gradientUnits="userSpaceOnUse" xlink:href="#a"/>
  <linearGradient id="bz" x1="-58.544" x2="210.75" y1="270.3" y2="68.271" gradientUnits="userSpaceOnUse" xlink:href="#a"/>
  <linearGradient id="by" x1="17.805" x2="480.15" y1="122.57" y2="409.37" gradientUnits="userSpaceOnUse" xlink:href="#a"/>
  <radialGradient id="r" cx="504.19" cy="348.81" r="39.555" gradientTransform="matrix(1.1201 .15169 -.05722 .42256 -45.335 130.68)" gradientUnits="userSpaceOnUse">
   <stop offset="0"/>
   <stop stop-color="#0e0e0e" offset=".8213"/>
   <stop stop-color="#1d1d1d" offset="1"/>
  </radialGradient>
  <radialGradient id="k" cx="485.23" cy="424.03" r="6.3218" gradientTransform="matrix(5.5875 .44868 -.28582 2.5802 -2385 -884.39)" gradientUnits="userSpaceOnUse">
   <stop offset="0"/>
   <stop stop-color="#141414" offset=".8213"/>
   <stop stop-color="#444" stop-opacity="0" offset="1"/>
  </radialGradient>
  <radialGradient id="ak" cx="577.04" cy="768.64" r="90.513" gradientTransform="matrix(1 0 0 1.0583 0 -37.78)" gradientUnits="userSpaceOnUse">
   <stop stop-color="#c3c3c3" offset="0"/>
   <stop stop-color="#2c2c2c" offset="1"/>
  </radialGradient>
  <radialGradient id="aj" cx="499.87" cy="663.99" r="26.881" gradientTransform="matrix(1.7679 -.82383 1.166 2.5023 -1136.8 -605.96)" gradientUnits="userSpaceOnUse">
   <stop stop-color="#3c593f" offset="0"/>
   <stop stop-color="#815f37" offset=".5"/>
   <stop stop-color="#1f331c" offset="1"/>
  </radialGradient>
  <radialGradient id="ap" cx="539.32" cy="947.39" r="126.8" gradientTransform="matrix(-2.4265 2.4265 -2.2616 -2.2616 3672.7 1144.5)" gradientUnits="userSpaceOnUse">
   <stop offset="0"/>
   <stop stop-color="#141414" offset=".8143"/>
   <stop stop-color="#444" offset="1"/>
  </radialGradient>
  <radialGradient id="v" cx="320.09" cy="368.51" r="70.672" gradientTransform="matrix(1.5099 -1.5099 1.5142 1.5142 -676.95 362.57)" gradientUnits="userSpaceOnUse" xlink:href="#a"/>
  <radialGradient id="u" cx="331.49" cy="331.07" r="44.376" gradientTransform="matrix(-2.1862 -2.1862 1.1879 -1.1879 757.03 1486.2)" gradientUnits="userSpaceOnUse" xlink:href="#a"/>
  <radialGradient id="t" cx="194.13" cy="474.25" r="40.19" gradientTransform="matrix(2.0328 2.0328 -.96194 .96194 274.23 -379.55)" gradientUnits="userSpaceOnUse" xlink:href="#a"/>
  <radialGradient id="s" cx="167.42" cy="136.54" r="37.766" gradientTransform="matrix(.01024 .44324 -.14331 .00331 287.78 399.26)" gradientUnits="userSpaceOnUse" xlink:href="#a" spreadMethod="reflect"/>
  <radialGradient id="q" cx="523.32" cy="409.35" r="12.256" gradientUnits="userSpaceOnUse" xlink:href="#a"/>
  <radialGradient id="p" cx="523.95" cy="399.7" r="21.341" gradientUnits="userSpaceOnUse" xlink:href="#d"/>
  <radialGradient id="o" cx="523.85" cy="402.95" r="14.081" gradientTransform="matrix(1.5155 0 0 -1.5155 -269.94 1029.5)" gradientUnits="userSpaceOnUse" xlink:href="#d"/>
  <radialGradient id="n" cx="65.711" cy="384.4" r="73.426" gradientTransform="matrix(-.31846 1.824 -1.4419 -.43658 777.69 414.09)" gradientUnits="userSpaceOnUse" xlink:href="#a"/>
  <radialGradient id="m" cx="525.73" cy="411.12" r="14.081" gradientTransform="matrix(5.7721 1.7066 -.74193 2.5094 -2523 -1485.5)" gradientUnits="userSpaceOnUse" xlink:href="#a"/>
  <radialGradient id="l" cx="511.71" cy="336.38" r="37.67" gradientTransform="matrix(-.1158 .50795 -.28954 -.09956 658.26 107.72)" gradientUnits="userSpaceOnUse" xlink:href="#b" spreadMethod="reflect"/>
  <radialGradient id="j" cx="471.81" cy="231.55" r="37.67" gradientTransform="matrix(1.0239 -.23606 .07994 .33094 -41.447 364.9)" gradientUnits="userSpaceOnUse" xlink:href="#b" spreadMethod="reflect"/>
  <radialGradient id="i" cx="511.71" cy="336.38" r="37.67" gradientTransform="matrix(.66263 .68167 -.25988 .16939 249.96 -71.647)" gradientUnits="userSpaceOnUse" xlink:href="#b" spreadMethod="reflect"/>
  <radialGradient id="h" cx="348.14" cy="436.78" r="5.7995" gradientUnits="userSpaceOnUse" xlink:href="#a"/>
  <radialGradient id="g" cx="476.11" cy="421.59" r="6.3218" gradientUnits="userSpaceOnUse" xlink:href="#a"/>
  <radialGradient id="f" cx="365.96" cy="812.8" r="183.66" gradientTransform="matrix(.58557 -1.0142 2.4801 1.4319 -1694.1 -146.51)" gradientUnits="userSpaceOnUse" xlink:href="#a" spreadMethod="reflect"/>
  <radialGradient id="al" cx="577.79" cy="851.58" r="124.97" gradientTransform="matrix(1.3027 .75211 -3.1804 5.5086 2393.6 -4258.1)" gradientUnits="userSpaceOnUse" xlink:href="#a"/>
  <radialGradient id="c" cx="1432.4" cy="99.821" r="125.62" gradientTransform="matrix(.42527 -.32156 .3446 .45574 788.84 512.4)" gradientUnits="userSpaceOnUse" xlink:href="#b"/>
  <radialGradient id="as" cx="154.03" cy="478.39" r="23.811" gradientTransform="matrix(4.7602 1.8052 -.95293 2.5129 -125.55 -1001.1)" gradientUnits="userSpaceOnUse" xlink:href="#a"/>
  <radialGradient id="ar" cx="472.98" cy="437.74" r="6.3218" gradientTransform="matrix(4.1088 8.4951 -14.905 3.8537 4732.9 -5225.9)" gradientUnits="userSpaceOnUse" xlink:href="#a"/>
  <radialGradient id="aq" cx="481.15" cy="420.84" r="6.3218" gradientTransform="matrix(5.3868 -9.3303 3.6788 2.7919 -4004 3474)" gradientUnits="userSpaceOnUse" xlink:href="#a"/>
  <radialGradient id="am" cx="454.13" cy="671.66" r="122.03" gradientTransform="matrix(1.6298 1.6298 -.74738 .74738 228.59 -643.15)" gradientUnits="userSpaceOnUse" xlink:href="#a"/>
  <radialGradient id="ai" cx="489.25" cy="655.96" r="26.881" gradientTransform="matrix(.18279 1.9443 -2.6494 .24907 2145.9 -480.1)" gradientUnits="userSpaceOnUse" xlink:href="#e"/>
  <radialGradient id="ah" cx="516.23" cy="644.35" r="60.206" gradientTransform="matrix(.95911 .09614 -.09057 .90351 84.592 17.03)" gradientUnits="userSpaceOnUse" xlink:href="#b"/>
  <radialGradient id="ag" cx="519.47" cy="630.24" r="122.04" gradientTransform="matrix(.89065 .89065 -.92289 .92289 648.65 -408.27)" gradientUnits="userSpaceOnUse" xlink:href="#a"/>
  <radialGradient id="af" cx="182.56" cy="585.37" r="119.58" gradientTransform="matrix(1.3393 -1.3393 1.7821 1.7821 -1221 -522.81)" gradientUnits="userSpaceOnUse" xlink:href="#a" spreadMethod="reflect"/>
  <radialGradient id="ae" cx="495.8" cy="433.71" r="6.3218" gradientTransform="matrix(4.2492 .91623 -1.5828 2.3884 -1256 -1061.3)" gradientUnits="userSpaceOnUse" xlink:href="#a"/>
  <radialGradient id="ad" cx="493.35" cy="422.62" r="6.3218" gradientTransform="matrix(4.2492 -.91623 -1.5828 -2.3884 -1256.9 1881.8)" gradientUnits="userSpaceOnUse" xlink:href="#a"/>
  <radialGradient id="ac" cx="485.62" cy="423.01" r="6.3218" gradientTransform="matrix(1.7848 0 0 1.0276 -693.66 -23.902)" gradientUnits="userSpaceOnUse" xlink:href="#a"/>
  <radialGradient id="ab" cx="495.8" cy="433.71" r="6.3218" gradientTransform="matrix(4.2492 .91623 -1.5828 2.3884 -1219.9 -1067.3)" gradientUnits="userSpaceOnUse" xlink:href="#a"/>
  <radialGradient id="aa" cx="493.35" cy="422.62" r="6.3218" gradientTransform="matrix(4.2492 -.91623 -1.5828 -2.3884 -1219.9 1875.8)" gradientUnits="userSpaceOnUse" xlink:href="#a"/>
  <radialGradient id="z" cx="485.62" cy="423.01" r="6.3218" gradientTransform="matrix(1.7193 0 0 .98986 -625.7 -14.157)" gradientUnits="userSpaceOnUse" xlink:href="#a"/>
  <radialGradient id="y" cx="495.8" cy="433.71" r="6.3218" gradientTransform="matrix(5.7699 2.1811 -2.1493 5.6856 -1408.7 -3090.2)" gradientUnits="userSpaceOnUse" xlink:href="#a"/>
  <radialGradient id="x" cx="493.35" cy="422.62" r="6.3218" gradientTransform="matrix(5.7699 -2.1811 -2.1493 -5.6856 -1408.7 3916)" gradientUnits="userSpaceOnUse" xlink:href="#a"/>
  <radialGradient id="w" cx="531.92" cy="412.9" r="14.87" gradientUnits="userSpaceOnUse" xlink:href="#a"/>
  <radialGradient id="at" cx="328.1" cy="508.23" r="111.34" gradientTransform="matrix(2.608 -2.2871e-7 1.1898e-7 1.3568 -630.14 -476.34)" gradientUnits="userSpaceOnUse" xlink:href="#a"/>
  <radialGradient id="ao" cx="373.67" cy="909.76" r="183.66" gradientTransform="matrix(.58557 -1.0142 2.4801 1.4319 -1762.6 -415.67)" gradientUnits="userSpaceOnUse" xlink:href="#a" spreadMethod="reflect"/>
  <radialGradient id="an" cx="700.61" cy="864.88" r="124.97" gradientTransform="matrix(1.1896 -1.1896 2.7915 2.8049 -2750.7 -699.67)" gradientUnits="userSpaceOnUse" xlink:href="#a" spreadMethod="reflect"/>
 </defs>
 <g transform="translate(-67.554 -274.32)">
  <path transform="translate(67.554 268.14)" d="m319.94 7.5c-2.538-0.0728-5.0281 0.42168-7.5312 0.65625-11.656-0.0839-22.084 2.4005-30.125 2.6562-11.061 0.35182-2.0217 0.62154-24 0.6875-8.4423 0.0253-9.7242 5.8449-7.7812 13.688-3.9972 0.75249-5.2338 3.9074-6.3125 6.2812-5.1232 3.7367-11.243-4.2237-25.406 10.094-12.362 11.905-14.47 21.172-20.438 35.719-3.2879 7.9185-6.7213 11-13.469 12.781-52.16 11.332-87.252 10.092-129.71 20.81-2.7572 0.69597-5.6673 1.3698-8.0556 2.8082-4.055 2.3411-5.0905 3.7417-9.4518 5.2872-5.9068 2.2658-11.307 3.4379-11.721 13.751-22.682 48.933-13.706 46.255-14.25 88.5-0.80776 62.709 0.2655 106.93 1.75 172 4.5055 30.757 16.045 36.787 20.375 41.562 20.082 22.149 39.345 44.896 94.875 40.781 10.052-0.74489 22.731-1.6412 35.312-3.1562 7.4106-0.89234 8.7278-2.9122 9.5507-6.868 1.4805-10.871 4.9521-12.151 13.834-15.159 27.049-8.9958 87.392-17.658 109.21-19.723l202.06-213.03c-0.39407-21.083 2.0988-42.806-1.9062-65.719-3.9149-23.614-8.596-38.192-13.844-45.812l-8.8125-10.969-13.438-10.969c-0.58657-2.9453 1.3264-1.1414 1.6562-4.2812 2.1812-20.765-3.1543-14.028-24.375-24.656-6.9851-3.4986-27.664-8.036-37.406-5.1875-2.8493 0.83309-8.4688 9.6875-8.4688 9.6875-14.034-16.09-29.089-30.009-46.875-38.125-5.4918-4.6446-12.533-8.7713-17.438-11.406-2.6904-1.9812-5.2745-2.6147-7.8125-2.6875z" fill="url(#by)"/>
  <path transform="translate(67.554 268.14)" d="m307.625,8.28125c-2.43099.11626-4.80285.31767-7.09375.5625l-.65625.0625c-.91742.10165-1.82712.23365-2.71875.34375-2.96803.36648-5.76049.72181-8.40625,1.03125-2.28406.26714-4.46395.49873-6.46875.5625-2.1681.06896-3.60039.1276-4.65625.1875-.47665.03048-.90477.06544-1.25.09375-1.02033.08368-1.82531.15791-3.34375.21875h-.21875c-.77432.02849-1.72518.04033-3.0625.0625h-.0312l-1.53125.03125c-5.46265.81943-11.1516,1.8337-17.09375,3-.0302.0427-.0646.08148-.0937.125-.18314.27334-.35839.53895-.5.84375-.16221.34786-.29579.73885-.40625,1.125-.0925.32574-.16087.6488-.21875,1-.0308.18252-.0409.37337-.0625.5625-.027.23569-.0492.47319-.0625.71875-.0158.30301-.0353.62035-.0312.9375 .005.41221.0253.84679.0625,1.28125s.089.85763.15625,1.3125 .15472.93281.25,1.40625c.0948.46913.19211.95154.3125,1.4375-.74948.14109-1.39622.36723-1.96875.65625s-1.07011.63351-1.5,1.03125c-.28659.26333-.54534.54887-.78125.84375-.005.0059.005.02535 0,.03125-.22936.28856-.43418.56834-.625.875-.0899.14398-.16714.29139-.25.4375-.0993.17526-.2217.35481-.3125.53125-.004.008.004.02326 0,.03125-.3242.63259-.60902,1.2584-.875,1.84375-.004.0081.004.02313 0,.03125-.15297.11157-.31378.18965-.46875.28125-.16465.09731-.33266.17313-.5.25-.10499.04823-.20631.11537-.3125.15625-.227.08658-.45419.16177-.6875.21875-.66038.16316-1.33517.21359-2.0625.21875h-.1875c-1.67732-.0059-3.56501-.23938-5.8125,0-.33271.03544-.68238.0976-1.03125.15625s-.69651.13229-1.0625.21875-.74095.16238-1.125.28125l-.125.03125c-.73281.23242-1.50927.56253-2.3125.9375-.42302.19748-.83732.41256-1.28125.65625-.8699.47752-1.79444,1.03767-2.75,1.71875l-.125.09375c-.44434.31994-.91111.6619-1.375,1.03125l-.15625.125c-.0879.07089-.16135.14602-.25.21875-.40497.33139-.7986.66001-1.21875,1.03125-.41211.36449-.85411.75133-1.28125,1.15625-.13075.12382-.24281.24726-.375.375-.30529.29505-.5932.58978-.90625.90625-3.05279,3.08061-6.47423,7.19252-10.34375,12.6875-.0362.06003-.0579.12745-.0937.1875-3.91516,6.55549-6.1358,13.27879-9.5625,21.75l-.0937.25-.34375.84375c-.13193.31712-.27364.63565-.40625.9375-.0719.16387-.14653.34053-.21875.5-.17513.38561-.35373.76444-.53125,1.125-.24062.4895-.4717.9607-.71875,1.40625-.0174.03131-.0451.06266-.0625.09375-.26433.47217-.53793.91839-.8125,1.34375-.26985.41805-.56131.81167-.84375,1.1875-.28054.3733-.54816.72792-.84375,1.0625l-.0312.03125c-.0646.07267-.12214.14783-.1875.21875-.23948.26121-.49909.51146-.75.75-.27419.25893-.55414.51611-.84375.75l-.125.09375c-.2399.18948-.49846.35731-.75.53125-.1045.07251-.20589.14879-.3125.21875-.19458.12728-.39176.25586-.59375.375l-.53125.3125c0,0 28.50857,10.35669 37.8125,21.46875 17.35644,29.59429 12.30311,68.66304.40625,91.1875-33.0716,66.25626-11.15677,156.76435-3.71875,236.625l72.3125-6.84375 150.75-158.90625c.001-.0102-.001-.021 0-.0312 4.8203-44.37117 2.52664-96.33422-20.84375-156.8125-3.01026-7.79001-12.96301-8.48367-14.4375-18.53125-.75564-5.14911 7.18778,4.28183-9.71875-18.625-.43609,1.61672-12.9375-17.84375-12.9375-17.84375-14.03387-16.09018-26.43272-30.16579-44.21905-38.2813-2.05943-1.74173-4.32422-3.42404-6.625-4.96875-.76693-.5149-1.54755-1.0146-2.3125-1.5-3.05981-1.94162-6.04764-3.62002-8.5-4.9375-.44308-.32628-.87489-.61861-1.3125-.875-5.78448-.68061-12.02777-1.04255-18.8125-1.0625z" fill="url(#af)"/>
  <path transform="translate(67.554 274.32)" d="m22.094 134.97c-6.9886 15.843-9.9946 25.492-11.125 33.75 0.4106 5.9325 0.80431 12.901 0.6875 21.969-0.04757 3.6931-0.05936 7.5015-0.09375 11.25 0.13144 3.872 0.18877 8.1433 0.125 13.094-0.16608 12.893-0.23018 24.89-0.25 36.562 0.13638 35.502 0.65181 72.028 1.375 107.44 0.17257 8.4494 0.37348 16.84 0.5625 25.125 0.57644 3.5225 1.1238 8.9982 2.3125 14.281 0.12682 0.4998 0.24404 0.98683 0.375 1.4688 0.02331 0.09276 0.03874 0.18875 0.0625 0.28125 0.32343 1.1748 0.65447 2.3033 1 3.375 0.03968 0.1155 0.08436 0.22928 0.125 0.34375 0.72829 2.0512 1.5984 3.9482 2.6875 5.5 18.571 26.462 89.441 56.907 104.94 41.375v-253c-0.79086-2.3504-1.678-5.114-2.625-8.0625-50.604 1.9394-69.155-19.858-88.438-41.125-2.4548-2.7075-7.2276-5.8304-11.719-13.625z" fill="url(#bz)"/>
  <path transform="translate(67.554 274.32)" d="m226.56 154.94c-10.843 0.22439-30.074 6.6038-42.875 12.094-5.9289 4.8807-6.9608 4.8935-8.3438 8.6562 1.9376 1.9693 3.8073 4.2327 5.1875 5.7812 16.759 18.803-5.3188 34.99-5.1562 68.812v185.66c-1.2153 9.7224-2.1075 18.452-2.75 26.312 0.43233-0.82291 0.70663-1.7964 0.9375-2.9062 1.4805-10.871 4.9307-12.148 13.812-15.156 23.422-7.7896 71.78-15.309 98.5-18.531l0.125-0.03125c0.57219-0.14137 1.141-0.25457 1.6875-0.3125l-63.406 6c-7.438-79.861-29.353-170.37 3.7188-236.62 5.0639-9.5876 8.8663-22.174 10.25-35.75-2.7674-1.6327-4.875-2.5938-4.875-2.5938-1.3908-1.0597-3.7765-1.4691-6.8125-1.4062z" fill="url(#bx)"/>
  <path d="m324.59 308.52c0.50778 3.2688-3.0344 3.4651-5.1562 3.75-2.7361 3.0314-5.1693 7.8193-10.094 6.9688-5.4504-0.34916-11.267 0.58934-14.781 5.0312-10.124 8.6982-16.668 20.902-19.938 33.781-3.5735 9.6047-12.942 16.172-23.219 16.156-17.574 2.2895-35.099 5.4078-52.469 8.4375-23.879 1.99-49.517-0.35789-71.125 11.594-4.0156 2.5542-9.989 1.4353-13.188 5.125-1.7493 4.7135-1.1611 10.09-3.625 14.656-6.7938 14.653-13.513 29.862-12.219 46.438 2.441 44.402-0.19907 88.911 1.625 133.34 0.6828 22.196-0.31681 44.601 2.7812 66.625 2.3861 11.565-2.6378 23.612 6.125 31.188 14.469 17.401 38.829 38.659 62.219 39.719 19.016 1.7993 45.327 0.65195 64.031-2.25 0.56754 4.8647 1.8 0.80219-1.5938 4.4062-20.887 3.3328-42.565 5.9539-63.875 3.9375-24.935-1.1297-46.638-17.387-62.062-35.938-9.3418-8.0762-16.769-18.796-19.312-31.125-3.3027-23.479-2.2408-47.368-2.9688-71.031-1.9446-47.368 0.88348-94.821-1.7188-142.16-1.3801-17.671 5.7573-33.879 13-49.5 2.6267-4.8683 2.0101-10.6 3.875-15.625 3.4098-3.9334 9.7816-2.7458 14.062-5.4688 23.035-12.741 50.356-10.222 75.812-12.344 18.517-3.2299 37.202-6.5592 55.938-9 10.955 0.0164 20.94-6.9794 24.75-17.219 3.4855-13.73 10.488-26.758 21.281-36.031 3.7464-4.7354 9.9396-5.7472 15.75-5.375 5.2498 0.90678 7.8332-4.1746 14.711-7.0781-2.2428 1.5476 1.5545 6.3529 1.3828 8.9844z" opacity=".27"/>
  <path transform="translate(67.554 268.14)" d="m427.56 133.56-141.88 11.344c-13.741 1.8917-15.763 11.156-16.531 13.719l-13.719 73.781-5.6562 21.281 180.44-45.438c10.34-26.692-23.596-61.536-2.6562-74.688z" fill="url(#at)"/>
  <path d="m449.38 436.69c-47.114 0.13477-95.862 29.139-122.84 77.969-30.871 55.868-24.501 121.56 12.95 158.83 109.82 103.78 96.058 82.473 134.3 105.34 16.918 8.6506 41.446 11.363 60.066 10.696 46.61-1.6695 94.183-30.844 120.84-79.081 28.907-52.313 24.714-111.7-6.2168-149.88-4.4922-5.5455-8.8862-11.65-13.556-17.602-2.3349-2.9759-4.7387-5.9135-7.2582-8.7238s-5.1546-5.4932-7.952-7.9598c-35.979-31.723-77.061-57.177-120.95-77.96-15.282-7.2357-32.334-11.674-49.375-11.625z" fill="url(#f)"/>
  <path d="m563.15 521.49c-47.645 0.13578-96.902 29.395-124.19 78.594-37.155 66.995-19.437 145.68 39.594 175.75 16.602 8.4582 34.575 11.4 45.003 11.632s11.642 0.16963 12.855 0.0901c45.438-2.9766 91.367-31.145 117.33-78.128 28.907-52.313 24.712-111.72-6.2188-149.91-27.249-23.507-7.4062-6.4688-7.4062-6.4688s-16.735-14.598-27.031-19.844c-15.68-7.9883-32.704-11.768-49.938-11.719z" fill="url(#ao)"/>
  <path d="m505.625,463c-3.81516.018-7.90229.0937-12.46875.0937-81.26476,0-150.03125,68.30262-150.03125,149.46875 0,38.04378 11.59011,70.34778 34.78125,96.78125 .0389.0444.086.0807.125.125 22.21986,20.37512 36.75472,32.86427 47.1875,40.9375l.4375.3125c7.57601,5.36491 15.28121,10.40932 21.5,14.09375 3.70431,1.93101 7.35691,3.64601 11.5625,5.75 .74337.16223 1.21018.11105 1.3125-.21875l-.0937-.0625c-.99748-.61793-1.98928-1.23662-2.96875-1.875-.54171-.35305-1.08886-.70327-1.625-1.0625-1.00402-.67291-1.98453-1.36807-2.96875-2.0625-1.23458-.87107-2.45339-1.75181-3.65625-2.65625-1.21175-.91113-2.41484-1.83681-3.59375-2.78125-1.18458-.94898-2.34922-1.9242-3.5-2.90625-1.02245-.87253-2.03598-1.75804-3.03125-2.65625l-.75-.6875c-.89203-.81646-1.7868-1.63176-2.65625-2.46875-.12765-.12284-.24784-.25172-.375-.375-1.01912-.98839-2.01272-1.98368-3-3-1.00247-1.03195-1.99968-2.06474-2.96875-3.125-.0996-.10894-.18196-.23452-.28125-.34375-.94305-1.03831-1.87065-2.09146-2.78125-3.15625-.96604-1.12962-1.91485-2.27861-2.84375-3.4375-.90836-1.13326-1.81526-2.27677-2.6875-3.4375-.23836-.31701-.45186-.64972-.6875-.96875-.41621-.56385-.84234-1.11738-1.25-1.6875-.65872-.92071-1.30134-1.84436-1.9375-2.78125l-.78125-1.15625c-.43361-.65268-.85861-1.30848-1.28125-1.96875-.50462-.78881-1.01117-1.57548-1.5-2.375-.15505-.25345-.28404-.52673-.4375-.78125-.5753-.95479-1.16609-1.90534-1.71875-2.875-.26994-.4732-.51675-.96079-.78125-1.4375-.53884-.97195-1.07772-1.95117-1.59375-2.9375-.61073-1.16735-1.20287-2.34411-1.78125-3.53125-.45922-.94204-.90516-1.88946-1.34375-2.84375-.15757-.34302-.31387-.68667-.46875-1.03125-.34964-.7775-.69536-1.55834-1.03125-2.34375-.28055-.6563-.57287-1.307-.84375-1.96875-.27404-.6692-.51718-1.35653-.78125-2.03125-.35834-.91615-.72268-1.82382-1.0625-2.75-.51139-1.39383-.9998-2.80262-1.46875-4.21875-.10958-.33081-.20526-.66799-.3125-1-.31594-.97846-.64198-1.94874-.9375-2.9375-.203-.67888-.36921-1.37883-.5625-2.0625-.27264-.96474-.55935-1.93211-.8125-2.90625-.3884-1.49458-.75174-2.98375-1.09375-4.5-.30442-1.3484-.60777-2.69735-.875-4.0625-.0242-.12373-.0386-.25114-.0625-.375-.0963-.49885-.18996-.99896-.28125-1.5-.18887-1.03676-.36393-2.079-.53125-3.125-.0529-.33093-.1055-.66815-.15625-1-.19499-1.27477-.3685-2.55568-.53125-3.84375-.26632-2.10672-.47746-4.23372-.65625-6.375-.0882-1.05812-.18345-2.1212-.25-3.1875-.0233-.37236-.0419-.75165-.0625-1.125-.15803-2.86164-.25-5.73838-.25-8.65625 0-1.26822.0292-2.51952.0625-3.78125 .0667-2.52346.1774-5.0363.375-7.53125 .0988-1.24747.21291-2.51029.34375-3.75 .26175-2.47943.61253-4.92916 1-7.375 1.54952-9.78337 4.07666-19.29556 7.5-28.40625 1.28404-3.41651 2.6924-6.76153 4.21875-10.0625 23.90768-51.71527 76.85244-88.5625 136.53125-88.5625 1.67586,0 3.31482.0363 4.9375.0937 1.56548.0554 3.10498.14215 4.625.25h.15625c1.17819.0851 2.34697.19644 3.5.3125 .94635.0951 1.88195.19683 2.8125.3125 .75316.0938 1.5066.17416 2.25.28125 .91671.13177 1.81594.317 2.71875.46875 .15483.0261.31431.0358.46875.0625l.21875.0312c.9436.16445 1.88277.34517 2.8125.53125 .66083.13258 1.31443.29411 1.96875.4375 .97486.21313 1.94466.41944 2.90625.65625 1.22599.30193 2.44925.59773 3.65625.9375l.1875.0625c.19925.0564.39497.13003.59375.1875 1.01187.29257 2.03049.58751 3.03125.90625l.1875.0625c1.01268.32439 2.02808.64925 3.03125,1l.53125.1875c1.17504.41687 2.33495.86014 3.5,1.3125 .12555.0488.24955.10705.375.15625 1.21352.47551 2.41881.95557 3.625,1.46875 .0126.005.0186.0259.0312.0312 2.44307,1.04025 4.87916,2.15409 7.3125,3.34375 1.2144.59372 2.43922,1.21409 3.65625,1.84375 1.21443.62831 2.43586,1.27426 3.65625,1.9375 1.77091.96244 3.55166,1.93494 5.34375,2.96875 .10629.0613.20663.12579.3125.1875-7.89791-6.58626-16.01631-12.90379-24.34375-18.9375-9.53592-6.34104-19.07018-12.49968-24.96875-16.59375-2.10553-1.46199-3.94762-2.72665-5.78125-3.96875-5.78431-3.56847-11.66295-7.01693-17.59375-10.375-.26984-.12094-.54247-.25862-.8125-.375-11.09889-4.78314-19.99203-5.27253-31.4375-5.21855zm-59.3125,287.59375c.25145.31046.49501.62986.75.9375 .29648.35824.60528.70805.90625,1.0625 .50967.59851 1.00798,1.19396 1.53125,1.78125l.71875.8125c.38548.42377.79485.83234 1.1875,1.25l.59375.625c.427.44677.84596.90423 1.28125,1.34375-1.81667-2.32418-4.07296-4.94855-6.96875-7.8125z" fill="url(#au)"/>
  <path d="m481.88 447.84c-3.8152 0.018-7.9023 0.0937-12.469 0.0937-81.265 0-150.03 68.303-150.03 149.47 0 28.195 6.3868 53.226 19.125 75.062 0.32725 0.33498 0.63661 0.66947 0.96875 1 8.4906 8.0239 16.031 15.081 23.125 21.688-18.02-24.525-27.031-53.59-27.031-87.125 0-81.166 68.766-149.47 150.03-149.47 4.5665 0 8.6536-0.0758 12.469-0.0937 10.73-0.0506 19.211 0.38008 29.375 4.375-8.9085-4.8021-17.946-9.4053-27.125-13.781-5.9055-1.0933-11.737-1.2504-18.438-1.2188zm105.5 57.875c2.8141 2.3154 5.6283 4.3398 6.1875 3.5938 0.0982-0.13095 0.15644-0.2897 0.15625-0.46875-2.1192-1.0974-4.2289-2.137-6.3438-3.125zm-164.88 229.66c2.249 2.7815 4.6261 5.4539 7.1562 8-1.8471-2.3746-4.1738-5.056-7.1562-8z" fill="url(#av)" opacity=".614"/>
  <path d="m445.65625,434.0625c-76.52532,0-141.28125,64.31756-141.28125,140.75 0,26.55027 6.00472,50.12498 18,70.6875 .30817.31545.59348.62625.90625.9375 1.93381,1.82751 3.66376,3.4611 5.5,5.1875l-.15625-.25c-.48169-.84351-.94615-1.7047-1.40625-2.5625-.22338-.4165-.43798-.83021-.65625-1.25-.19411-.37318-.37243-.74926-.5625-1.125-.11187-.22125-.23328-.43412-.34375-.65625-.44843-.90128-.88721-1.80335-1.3125-2.71875-.45641-.98237-.88283-1.97074-1.3125-2.96875-.4283-.99483-.84838-1.99025-1.25-3-.12471-.31349-.25286-.62261-.375-.9375-.26759-.68997-.52606-1.39721-.78125-2.09375-.32538-.88812-.66358-1.78907-.96875-2.6875-.0457-.13465-.0797-.27138-.125-.40625-.22287-.66411-.44441-1.33049-.65625-2-.11813-.37336-.22906-.75001-.34375-1.125-.008-.0218-.0235-.0407-.0312-.0625-5.41634-15.14017-8.125-31.63134-8.125-49.46875 0-70.44008 55.00651-130.59505 123.53125-139.59375 .90067-.16611 1.81684-.32284 2.71875-.46875 .89594-.14494 1.79066-.28136 2.6875-.40625 1.42875-.19896 2.85128-.35236 4.28125-.5 .86628-.0907 1.72741-.1783 2.59375-.25l.34375-.0312c.96551-.0771 1.94115-.13437 2.90625-.1875l.59375-.0312c.55222-.027 1.10427-.0433 1.65625-.0625 1.22792-.0435 2.46166-.0902 3.6875-.0937 2.81915-.008 5.62581.11387 8.4375.34375-5.95941-1.47817-13.23765-2.97192-18.15625-2.96875z" fill="#1a1a1a"/>
  <path d="m387.5 275.66c-2.538-0.0728-5.0281 0.42167-7.5312 0.65625-11.656-0.0839-22.084 2.4005-30.125 2.6562-11.061 0.35182-2.0217 0.59029-24 0.65625-8.4423 0.0253-9.7242 5.8449-7.7812 13.688-3.9972 0.75249-5.2338 3.9386-6.3125 6.3125-2.8276 2.0624-5.9686 0.57453-10.594 1.2188 7.9757 5.6616 22.186 12.178 47.594 24.531 22.47 10.924 70.42 39.472 82.875 27.375 6.8859-6.688 10.875-14.621 10.875-23.125 0-11.751-11.302-26.652-27.406-38.75-0.77567-0.38109-1.5576-0.76628-2.3438-1.125-2.0594-1.7417-4.3251-3.423-6.625-4.9688-0.17599-0.11828-0.35507-0.22695-0.53125-0.34375-5.4275-3.3321-11.178-6.2948-17.094-8.7188h-0.0312c-0.31882-0.028-0.6515-0.0534-0.96875-0.0625z" fill="url(#v)"/>
  <path d="m377.81 276.31c-10.78 0.20599-20.43 2.4165-27.969 2.6562-11.061 0.35182-2.0217 0.59029-24 0.65625-8.4423 0.0253-9.7242 5.8449-7.7812 13.688-3.9972 0.75249-5.2338 3.9386-6.3125 6.3125-1.6853 1.2292-3.4702 1.1888-5.625 1.0938 7.4725 5.0575 23.542 13.008 45.25 23.562 19.926 9.6878 66.424 38.259 77.469 27.531 6.1064-5.9309 6.9351-16.349 5.6562-23.781-1.75-10.171-10.781-21.865-25.062-32.594-0.68787-0.33795-0.61531-2.4319-1.3125-2.75-1.8263-1.5446-3.8354-3.0355-5.875-4.4062l-0.46875-0.3125c-4.8131-2.9549-9.91-5.5692-15.156-7.7188h-0.0312c-0.28273-0.0248-0.59367-0.0545-0.875-0.0625-1.0675-0.0306-3.4971-1.9228-6-3.875-0.64305-3e-3 -1.2709-0.0121-1.9062 0z" fill="url(#aw)" opacity=".9224"/>
  <path d="m332.25 280.11 49.25-2.75 26.75 15.75-57.75 5z" fill="url(#ax)" opacity=".8651"/>
  <path d="m334.1875,279.59375c-2.25341.0237-4.34638.0192-8.34375.0312-8.32865.025-9.67439,5.69249-7.84375,13.375l22.125,15.25 4.375-3 .25-6.25 10.125.25 .125-5.625-20.375-13.875-.4375-.15625z" fill="url(#ay)"/>
  <path d="m387.5 275.66c-2.538-0.0728-5.0281 0.42167-7.5312 0.65625-0.83399-6e-3 -1.6477-0.0186-2.4688 0l-0.0937 0.34375 21.062 13.625 0.53125 4.0625 9.875 0.1875 0.1875 4.4062 4.9375 2.125-0.84375-11.125-0.40625-0.1875c-5.4918-4.6446-12.533-8.7713-17.438-11.406-2.6904-1.9812-5.2745-2.6147-7.8125-2.6875z" fill="url(#az)"/>
  <path d="m414.14 294.17 0.14268 9.2939-0.0976 0.0625-4.5577-3-0.26043-6.25-10.548 0.25-0.13022-4.375 0.0651-0.0312 9.8636-0.16116c2.7436 0.52038 5.8272-1.0602 5.5223 4.211z" fill="url(#ba)"/>
  <path d="m340.26196,298.86236-.13696,9.29389 .0937.0625 4.375-3 .25-6.25 10.125.25 .125-5.625-.0625.2188-9.4683-.16116c-2.63361.52038-5.56368.34606-5.30094,5.21097z" fill="url(#bb)"/>
  <path d="m336.05 313.79c0.6876-13.271 60.056-29.109 85.497-7.95 1.851 1.5395 4.6813 4.4388 4.2767 5.8202-1.1611 3.9643-11.901 0.23313-16.601 0.50112-20.683 1.0607-62.036 7.8159-62.036 7.8159z" fill="url(#u)"/>
  <path transform="translate(67.554 268.14)" d="m396.31 103.97c-7.2405 0.0936-15.117 0.78017-22.625 1.2812-39.022 2.6042-56.75 5.8228-63.5 22.25-1.547 3.765-5.3887 11.118-4.6562 15.812l123.31-10.375c1.271-0.6146 2.5938-2.3918 2.5938-4.1875 0-3.4078-4.4372-9.3326-8.9688-17.031-3.8045-6.4634-14.089-7.906-26.156-7.75z" fill="url(#bt)"/>
  <path d="m481.43 421.59c0 2.9391-2.3826 5.3218-5.3218 5.3218s-5.3218-2.3826-5.3218-5.3218 2.3826-5.3218 5.3218-5.3218 5.3218 2.3826 5.3218 5.3218z" fill="url(#g)" stroke="#000" stroke-linecap="round" stroke-linejoin="round" stroke-width="2"/>
  <path d="m352.94 436.78c0 2.6507-2.1488 4.7995-4.7995 4.7995s-4.7995-2.1488-4.7995-4.7995 2.1488-4.7995 4.7995-4.7995 4.7995 2.1488 4.7995 4.7995z" fill="url(#h)" stroke="#000" stroke-linecap="round" stroke-linejoin="round" stroke-width="2"/>
  <path d="m250.67 482.51c-5.8133-2.2282-14.006 4.9533-36.332 6.1915-21.178 1.1745-28.261-1.8839-37.749 1.9614-3.6511 1.4797-2.3185 11.785-2.4231 12.179-1.0037 3.7802 18.037 4.5961 42.649 3.1893 24.076-1.3761 38.282-8.2577 37.549-13.774-0.0945-0.71161-0.72574-8.6093-3.6936-9.7469z" fill="url(#t)"/>
  <path d="m248.44 482.09c-7.7621 3.4063-19.562 6.288-32.969 7.6875-13.246 1.3827-25.249 1.0247-33.531-0.65625-1.547 0.26864-3.0746 0.689-4.6562 1.2812l-0.25 10.094c7.2392 3.4496 22.892 4.7704 40.75 2.9062 14.489-1.5124 27.113-4.76 34.781-8.5312l-3.4375-12.719c-0.22243-0.0261-0.45614-0.0559-0.6875-0.0625z" fill="url(#s)"/>
  <path d="m468.84375,349.64343c.41373.84327.83108,1.68372 1.21875,2.53125-.002.0101.002.0212 0,.0312 .2281.49903.46848.99992.6875,1.5 .20098.45817.40028.91645.59375,1.375 .15705.37329.31678.75144.46875,1.125 .24024.58853.45988,1.19256.6875,1.78125 .7308,1.89933 1.40185,3.79656 2,5.6875l.0312.0937c.4911.19482.93977.39493 1.5.59375 4.82674,1.49983 10.45927,2.95708 16.625,4.25 20.5627,4.31185 24.23813,5.63805 34.875.9375 3.23897-1.43134 6.17782-4.02998 6.93845-8.04456 0,0 .12495-2.86819-3.6039-2.33512-4.84389.66374-12.10429-.079-17.89705-.0578-20.40607-1.27214-34.40165-4.8862-43.28125-9.125 .0935.16174-.30848-.0381-.84375-.34375z" fill="url(#r)" opacity=".556"/>
  <path d="m467.59375,342.14343c.41373.84327.83108,1.68372 1.21875,2.53125-.002.0101.002.0212 0,.0312 .2281.49903.46848.99992.6875,1.5 .20098.45817.40028.91645.59375,1.375 .15705.37329.31678.75144.46875,1.125 .24024.58853.45988,1.19256.6875,1.78125 .7308,1.89933 1.40185,3.79656 2,5.6875l.0312.0937c.4911.19482.93977.39493 1.5.59375 4.82674,1.49983 10.45927,2.95708 16.625,4.25 20.5627,4.31185 39.09274,5.11385 41.375,1.8125 .27885-.40336 1.46635-.63774 2.14664-3.89627s.85336-9.54123.85336-9.54123-.73975-.64192-.78125-1.59375c-.0246-.0293-.0371-.0632-.0625-.0937 .22536,5.87851-13.54794,3.7772-23.21875,3.8125-20.40607-1.27214-34.40165-4.8862-43.28125-9.125 .0935.16174-.30848-.0381-.84375-.34375z" fill="url(#bc)"/>
  <path d="m459.59 319.14c-1.222 0.0335-2.1481 2.7821-2.7812 5.6875 2.1763 2.7822 4.2845 5.8148 6.2812 9.0938 0.97512 1.6013 1.9042 3.2097 2.7812 4.8438 0.014 0.0182 0.0173 0.0444 0.0312 0.0625 0.97537 1.2723 1.8795 2.5285 2.5312 3.6562 8.8782 4.2421 22.853 7.8515 43.281 9.125 10.109-0.0369 24.729 2.2673 23.125-4.6562 0.70254-6.6879 0.80425-10.051 0.0625-13.406-0.21937 0.10616-0.77699-1.0588-1.0312-0.96875 0.75954 0.82094 0.97353 1.579 0.53125 2.2188-2.2823 3.3014-20.812 2.4994-41.375-1.8125s-33.094-13.781-33.094-13.781c-0.11694-0.0447-0.23189-0.0656-0.34375-0.0625z" fill="url(#bd)"/>
  <path d="m534.39 334.81c-2.2823 3.3014-20.802 2.4822-41.365-1.8297s-35.382-10.484-33.1-13.785 20.802-2.4822 41.365 1.8297 35.382 10.484 33.1 13.785z" fill="url(#be)" stroke="url(#i)" stroke-width=".91207"/>
  <path d="m467.03 340.57c0.29433 0.57238 0.59272 1.1438 0.875 1.7188 6.0848 2.8498 17.31 6.2209 28.722 8.2295 20.54 3.6149 36.762 3.1646 38.688-1 0.22749-0.49202-0.2095-0.39366-0.4375-0.9375-2.3931 3.9851-17.938 3.7147-38.156 0.15625-10.778-1.897-22.628-5.2118-29.691-8.167z" fill="url(#bf)" stroke="url(#j)" stroke-linecap="round" stroke-linejoin="round" stroke-width=".5"/>
  <path transform="matrix(1.1174 0 0 .84853 -19.129 57.507)" d="m244.09 359.91c-0.16791 8e-3 -0.33519 0.0293-0.5 0.0625l-108.68 22.705c-1.3375 0.24404-2.4697 1.367-2.7247 2.7025s0.38379 2.7966 1.5372 3.5163l18.038 19.594c0.7157 0.45302 1.6048 0.62401 2.4375 0.46875l116.51-25.652c1.3375-0.24404 2.4697-1.367 2.7247-2.7025s-0.38379-2.7966-1.5372-3.5163l-25.868-16.648c-0.57308-0.36576-1.258-0.55356-1.9375-0.53125z" fill="url(#br)"/>
  <g transform="matrix(1.6118 .10188 -.0497 .78628 -615.29 54.338)" stroke="#333" stroke-linecap="round" stroke-linejoin="round">
   <path transform="matrix(1.0494 0 0 1.0494 -25.732 -19.332)" d="m533.63 409.35c0 5.6982-4.6193 10.318-10.318 10.318s-10.318-4.6193-10.318-10.318 4.6193-10.318 10.318-10.318 10.318 4.6193 10.318 10.318z" fill="url(#q)" opacity=".3103" stroke-width="2.5343"/>
   <path d="m523.59 396.17c-7.2247 0-13.081 5.8568-13.081 13.081s5.8568 13.081 13.081 13.081 13.081-5.8568 13.081-13.081-5.8568-13.081-13.081-13.081z" fill="url(#p)" opacity=".3103" stroke-width="2.6596"/>
   <path d="m510.53 409.22c-2e-5 0.0105 0 0.0208 0 0.0312 0 7.2247 5.8691 13.094 13.094 13.094 7.067 0 12.783-5.6184 13.031-12.625-2.9757 0.13519-6.0271 0.25-9.1562 0.25-5.9551 0-11.646-0.2798-16.969-0.75z" fill="url(#o)" opacity=".3103" stroke-width="2.6596"/>
  </g>
  <path transform="matrix(1.1174 0 0 .84853 -19.129 58.921)" d="m244.09 359.91c-0.16791 8e-3 -0.33519 0.0293-0.5 0.0625l-108.68 22.705c-1.3375 0.24404-2.4697 1.367-2.7247 2.7025s0.38379 2.7966 1.5372 3.5163l18.038 19.594c0.7157 0.45302 1.6048 0.62401 2.4375 0.46875l116.51-25.652c1.3375-0.24404 2.4697-1.367 2.7247-2.7025s-0.38379-2.7966-1.5372-3.5163l-25.868-16.648c-0.57308-0.36576-1.258-0.55356-1.9375-0.53125z" fill="url(#n)" opacity=".4698" stroke="#000" stroke-width=".6408"/>
  <path d="m249.18 365.97c-0.16954 6e-3 -0.33844 0.0225-0.50485 0.048l-109.73 17.409c-1.3504 0.18711-2.4937 1.0482-2.7512 2.0721s0.38751 2.1443 1.5521 2.6961l18.213 15.023c0.72265 0.34736 1.6204 0.47846 2.4612 0.35942l117.64-19.668c1.3504-0.18712 2.4937-1.0482 2.7512-2.0721s-0.38751-2.1443-1.5521-2.6961l-26.119-12.764c-0.57864-0.28044-1.2702-0.42444-1.9563-0.40733z" fill="url(#bg)"/>
  <path d="m205.09476,413.50589c-17.12007-.23324-30.87593,5.95724-31.41629,14.50613-.19814,3.13459 1.41942,6.15824 4.37096,8.8512 .0142.013.0404.0143.0546.0273 1.08148.98114 2.32563,1.91167 3.74263,2.78649 1.03601.6396 2.13805,1.25925 3.33286,1.83034 .0259.0124.056.0149.0819.0273 .38295.18206.77673.37201 1.1747.54638l.0819.0273c.39957.17415.8153.35296 1.22933.51905l.0546.0273c.86446.34549 1.75381.67522 2.67722.98346l.0546.0273c.9256.30781 1.88906.57939 2.86845.84687l.0546.0273c.9812.2669 1.97526.51411 3.00504.7376l.0819.0273c1.02345.22066 2.07553.39877 3.14163.57369 2.21652.36701 4.51726.64262 6.88427.79224 7.00104.44253 13.52296-.19942 19.01368-1.63911 .39509-.1031.79075-.21651 1.1747-.32783l.19123-.0546 .92882-.27319c.12972-.0418.2542-.0939.38246-.13659 .4241-.14124.84895-.28549 1.25666-.4371 .27899-.10318.54845-.19262.81955-.3005 .13011-.052.25422-.11086.38246-.16391l.76492-.32782c.13309-.059.25158-.13102.38246-.19123 .38149-.17552.75794-.33361 1.12006-.51906l.62832-.32782c.14154-.0772.27156-.16716.40978-.24586 .19628-.11106.38417-.21372.57369-.32783l.40978-.24586c.0451-.0284.0919-.0533.13659-.0819 .25809-.16617.49369-.34702.7376-.51906l.0546-.0273c.15388-.10833.28899-.21722.43709-.32782l.40978-.30051 .40978-.32782c.13593-.11475.25255-.23824.38246-.35514 .206-.18537.41047-.35575.601-.54637l.1366-.13659c.0965-.0981.18087-.20111.27318-.30051 .21476-.2312.40938-.47203.60101-.71028 .19692-.24482.37458-.48563.54637-.7376s.32182-.48611.46441-.7376 .26655-.51164.38246-.76492c.12088-.26412.2341-.52189.32782-.79223 .18246-.5263.30701-1.06364.38246-1.61179 .0275-.19972.0692-.39859.0819-.60101 .57639-9.11881-14.11735-17.47703-32.80954-18.65855-1.16826-.0739-2.32811-.0937-3.46945-.10927z" fill="url(#m)"/>
  <path transform="translate(67.554 268.14)" d="m138.31 152.5c-11.786-0.13661-21.253 2.874-21.405 6.1482s-0.20268 4.1171-0.22012 4.3518c-0.39679 5.3411 9.6946 10.245 22.562 10.938s23.634-3.0652 24.031-8.4062c0.0333-0.44845-0.19158-1.611 0.0142-4.8296s-9.7401-7.4159-22.608-8.1079c-0.80425-0.0433-1.5893-0.0846-2.375-0.0937z" fill="url(#aq)"/>
  <path d="m545.38 412.9c0 7.5027-6.0258 13.585-13.459 13.585s-13.459-6.0822-13.459-13.585 6.0258-13.585 13.459-13.585 13.459 6.0822 13.459 13.585z" fill="url(#w)"/>
  <path d="m542.65 412.9c0-5.9799-4.8027-10.828-10.727-10.828s-10.727 4.8477-10.727 10.828 4.8027 10.828 10.727 10.828 10.727-4.8477 10.727-10.828z" fill="url(#x)" opacity=".44"/>
  <path d="m542.65 412.9c0 5.9799-4.8027 10.828-10.727 10.828s-10.727-4.8477-10.727-10.828 4.8027-10.828 10.727-10.828 10.727 4.8477 10.727 10.828z" fill="url(#y)" opacity=".2512"/>
  <path d="m230.83 429.16c-0.3968 5.341-11.15 9.1098-24.018 8.4178s-22.978-5.5828-22.581-10.924 11.15-9.1098 24.018-8.4178 22.978 5.5828 22.581 10.924z" fill="url(#k)"/>
  <path d="m230.83 429.41c-0.3968 5.341-11.15 9.1098-24.018 8.4178s-22.978-5.5828-22.581-10.924 11.15-9.1098 24.018-8.4178 22.978 5.5828 22.581 10.924z" fill="url(#ar)" opacity=".6372" stroke="url(#as)" stroke-linecap="round" stroke-linejoin="round" stroke-width=".3"/>
  <path d="m505.625,463c-3.81516.018-7.90229.0937-12.46875.0937-81.26476,0-150.03125,68.30262-150.03125,149.46875 0,38.04378 11.59011,70.34778 34.78125,96.78125 .0389.0444.086.0807.125.125 22.21987,20.37512 36.75472,32.86427 47.1875,40.9375l.4375.3125c7.57601,5.36491 15.28121,10.40932 21.5,14.09375 3.70431,1.93101 7.35691,3.64601 11.5625,5.75 .74338.16223 1.21019.11105 1.3125-.21875l-.0937-.0625c-.99748-.61793-1.98928-1.23662-2.96875-1.875-.54171-.35305-1.08885-.70327-1.625-1.0625-1.00402-.67291-1.98452-1.36807-2.96875-2.0625-1.23458-.87107-2.45339-1.75181-3.65625-2.65625-1.21175-.91113-2.41484-1.83681-3.59375-2.78125-1.18458-.94898-2.34921-1.9242-3.5-2.90625-1.02245-.87253-2.03598-1.75804-3.03125-2.65625l-.75-.6875c-.89203-.81646-1.7868-1.63176-2.65625-2.46875-.12765-.12284-.24784-.25172-.375-.375-1.01912-.98839-2.01271-1.98368-3-3-1.00247-1.03195-1.99968-2.06474-2.96875-3.125-.0996-.10894-.18196-.23452-.28125-.34375-.94305-1.03831-1.87064-2.09146-2.78125-3.15625-.96604-1.12962-1.91485-2.27861-2.84375-3.4375-.90836-1.13326-1.81526-2.27677-2.6875-3.4375-.23835-.31701-.45186-.64972-.6875-.96875-.41621-.56385-.84234-1.11738-1.25-1.6875-.65872-.92071-1.30134-1.84436-1.9375-2.78125l-.78125-1.15625c-.43361-.65268-.85861-1.30848-1.28125-1.96875-.50462-.78881-1.01117-1.57548-1.5-2.375-.15504-.25345-.28404-.52673-.4375-.78125-.5753-.95479-1.16609-1.90534-1.71875-2.875-.26994-.4732-.51675-.96079-.78125-1.4375-.53884-.97195-1.07772-1.95117-1.59375-2.9375-.61073-1.16735-1.20286-2.34411-1.78125-3.53125-.45921-.94204-.90516-1.88946-1.34375-2.84375-.15757-.34302-.31386-.68667-.46875-1.03125-.34964-.7775-.69536-1.55834-1.03125-2.34375-.28054-.6563-.57287-1.307-.84375-1.96875-.27404-.6692-.51718-1.35653-.78125-2.03125-.35834-.91615-.72268-1.82382-1.0625-2.75-.51139-1.39383-.9998-2.80262-1.46875-4.21875-.10958-.33081-.20525-.66799-.3125-1-.31593-.97846-.64198-1.94874-.9375-2.9375-.203-.67888-.3692-1.37883-.5625-2.0625-.27264-.96474-.55935-1.93211-.8125-2.90625-.3884-1.49458-.75174-2.98375-1.09375-4.5-.30442-1.3484-.60776-2.69735-.875-4.0625-.0242-.12373-.0386-.25114-.0625-.375-.0963-.49885-.18996-.99896-.28125-1.5-.18886-1.03676-.36393-2.079-.53125-3.125-.0529-.33093-.1055-.66815-.15625-1-.19498-1.27477-.3685-2.55568-.53125-3.84375-.26631-2.10672-.47745-4.23372-.65625-6.375-.0882-1.05812-.18345-2.1212-.25-3.1875-.0233-.37236-.0419-.75165-.0625-1.125-.15803-2.86164-.25-5.73838-.25-8.65625 0-1.26822.0292-2.51952.0625-3.78125 .0667-2.52346.1774-5.0363.375-7.53125 .0988-1.24747.21291-2.51029.34375-3.75 .26175-2.47943.61253-4.92916 1-7.375 1.54952-9.78337 4.07666-19.29556 7.5-28.40625 1.28404-3.41651 2.6924-6.76153 4.21875-10.0625 23.90768-51.71527 76.85244-88.5625 136.53125-88.5625 1.67586,0 3.31483.0363 4.9375.0937 1.56548.0554 3.10498.14215 4.625.25h.15625c1.17819.0851 2.34698.19644 3.5.3125 .94636.0951 1.88195.19683 2.8125.3125 .75316.0938 1.50661.17416 2.25.28125 .91671.13177 1.81594.317 2.71875.46875 .15483.0261.31431.0358.46875.0625l.21875.0312c.9436.16445 1.88278.34517 2.8125.53125 .66083.13258 1.31443.29411 1.96875.4375 .97486.21313 1.94466.41944 2.90625.65625 1.22599.30193 2.44925.59773 3.65625.9375l.1875.0625c.19925.0564.39497.13003.59375.1875 1.01188.29257 2.03049.58751 3.03125.90625l.1875.0625c1.01269.32439 2.02809.64925 3.03125,1l.53125.1875c1.17504.41687 2.33496.86014 3.5,1.3125 .12555.0488.24955.10705.375.15625 1.21352.47551 2.41881.95557 3.625,1.46875 .0126.005.0186.0259.0312.0312 2.44308,1.04025 4.87916,2.15409 7.3125,3.34375 1.2144.59372 2.43922,1.21409 3.65625,1.84375 1.21443.62831 2.43589,1.27426 3.65629,1.9375 1.7709.96244 3.5516,1.93494 5.34371,2.96875 .1063.0613.20659.12579.3125.1875-7.89791-6.58626-16.01631-12.90379-24.34375-18.9375-9.53592-6.34104-19.07018-12.49968-24.96875-16.59375-2.10553-1.46199-3.94762-2.72665-5.78125-3.96875-5.78431-3.56847-11.66295-7.01693-17.59375-10.375-.26984-.12094-.54247-.25862-.8125-.375-11.09889-4.78314-19.99203-5.27253-31.4375-5.21855zm-59.3125,287.59375c.25145.31046.49501.62986.75.9375 .29648.35824.60528.70805.90625,1.0625 .50968.59851 1.00798,1.19396 1.53125,1.78125l.71875.8125c.38549.42377.79485.83234 1.1875,1.25l.59375.625c.427.44677.84596.90423 1.28125,1.34375-1.81667-2.32418-4.07295-4.94855-6.96875-7.8125z" fill="url(#bh)"/>
  <path d="m479.88 445.84c-3.8152 0.018-7.9023 0.0937-12.469 0.0937-81.265 0-150.03 68.303-150.03 149.47 0 28.195 6.3868 53.226 19.125 75.062 0.32725 0.33498 0.63661 0.66947 0.96875 1 8.4906 8.0239 16.031 15.081 23.125 21.688-18.02-24.525-27.031-53.59-27.031-87.125 0-81.166 68.766-149.47 150.03-149.47 4.5665 0 8.6536-0.0758 12.469-0.0937 10.73-0.0506 19.211 0.38008 29.375 4.375-8.9085-4.8021-17.946-9.4053-27.125-13.781-5.9055-1.0933-11.737-1.2504-18.438-1.2188zm105.5 57.875c2.8141 2.3154 5.6283 4.3398 6.1875 3.5938 0.0982-0.13095 0.15644-0.2897 0.15625-0.46875-2.1192-1.0974-4.2289-2.137-6.3438-3.125zm-164.88 229.66c2.249 2.7815 4.6261 5.4539 7.1562 8-1.8471-2.3746-4.1738-5.056-7.1562-8z" fill="url(#bi)" opacity=".6791"/>
  <path d="m479.87 445.84c-3.8152 0.018-7.9023 0.0937-12.469 0.0937-81.265 0-150.03 68.303-150.03 149.47 0 28.195 6.3868 53.226 19.125 75.062 0.32725 0.33498 0.63661 0.66947 0.96875 1 8.4906 8.0239 16.031 15.081 23.125 21.688-18.02-24.525-27.031-53.59-27.031-87.125 0-81.166 68.766-149.47 150.03-149.47 4.5665 0 8.6536-0.0758 12.469-0.0937 10.73-0.0506 19.211 0.38008 29.375 4.375-8.9085-4.8021-17.946-9.4053-27.125-13.781-5.9055-1.0933-11.737-1.2504-18.438-1.2188zm105.5 57.875c2.8141 2.3154 5.6283 4.3398 6.1875 3.5938 0.098-0.13095 0.1564-0.2897 0.1563-0.46875-2.1193-1.0974-4.229-2.137-6.3438-3.125zm-164.88 229.66c2.249 2.7815 4.6261 5.4539 7.1562 8-1.8471-2.3746-4.1738-5.056-7.1562-8z" fill="url(#bj)" opacity=".6422"/>
  <path d="m117.04 403.69c0 5.2467-4.4772 9.5-10 9.5s-10-4.2533-10-9.5 4.4772-9.5 10-9.5 10 4.2533 10 9.5z" fill="url(#bq)" opacity=".3621"/>
  <path transform="matrix(-.6125 0 0 .6125 156.14 303.11)" d="m92 163c0 5.2467-4.4772 9.5-10 9.5s-10-4.2533-10-9.5 4.4772-9.5 10-9.5 10 4.2533 10 9.5z" fill="url(#bo)" opacity=".8621"/>
  <path d="m79.188 495.08c-0.56654 50.493 0.12855 90.24 1.2188 139.22 11.885 8.7358 21.344 8.6092 21.344-0.4375v-105.09c0-9.2048-9.7923-24.045-21.969-33.25l-0.59375-0.4375z" fill="none" stroke="url(#bk)" stroke-linecap="round" stroke-linejoin="round"/>
  <path d="m90.521 480.98c1.712 0 3.0998 2.9346 3.0998 6.5546s-1.3878 6.5546-3.0998 6.5546-3.0998-2.9346-3.0998-6.5546 1.3878-6.5546 3.0998-6.5546z" fill="url(#bl)"/>
  <path d="m90.521 660.26c1.712 0 3.0998-2.9346 3.0998-6.5546s-1.3878-6.5546-3.0998-6.5546-3.0998 2.9346-3.0998 6.5546 1.3878 6.5546 3.0998 6.5546z" fill="url(#bm)"/>
  <path d="m534.39 334.81c-2.2823 3.3014-20.802 2.4822-41.365-1.8297s-35.382-10.484-33.1-13.785 20.802-2.4822 41.365 1.8297 35.382 10.484 33.1 13.785z" fill="url(#bn)" opacity=".9267" stroke="url(#l)" stroke-width=".91207"/>
  <g transform="translate(-976.26 499.3)" fill="url(#c)" stroke="#000" stroke-linecap="round" stroke-linejoin="round" stroke-width=".7">
   <g transform="translate(608.11 410.83)" fill="url(#c)" opacity=".3209" stroke="#000" stroke-linecap="round" stroke-linejoin="round" stroke-width=".7">
    <path d="m752.16-397.72c-1.2375 1.3902-2.4283 2.8068-3.625 4.25l54.875 38.531 0.46875-2.5938 3.8438-1.1562-55.562-39.031z"/>
    <path d="m727.51-231.72c2.5548 4.4777 5.4178 8.7614 8.5625 12.812l49.906 35.062c0.72667 0.23541 1.4571 0.4372 2.1875 0.65625v-0.65625l-2.5625-1.4062c-1.0103-1.6186-1.9928-3.2747-2.9375-4.9375l0.15625-2.6875-55.312-38.844z"/>
    <path d="m719.19-249.82c1.1821 3.2757 2.4856 6.4961 3.9375 9.625l54.938 38.594 0.1875-1.1875-2.8125-2.125c-0.6095-1.4479-1.1872-2.9008-1.75-4.375l0.4375-1.9375-54.938-38.594z"/>
    <path d="m734.41-373.57c-0.95771 1.5903-1.9016 3.2087-2.8125 4.8438l53.031 37.25 5.0938-2.7188v-0.5l-55.312-38.875z"/>
    <path d="m739.81765-381.97291c-.0425.0617-.0826.12576-.125.1875-.9671,1.40819-1.91474,2.83296-2.84375,4.28125-.0407.0635-.0843.12391-.125.1875l53.1875,37.34375v-.34375l5.59375-2.5625-55.6875-39.09375z"/>
    <path d="m714.76-265.13c0.62012 2.8038 1.3546 5.5849 2.1562 8.3125l53.406 37.531 1.0625-3.5-2.8125-2.7812c-0.1762-0.70603-0.3358-1.4169-0.5-2.125l-53.312-37.438z"/>
    <path d="m840.2864-445.81666c-1.28199.15679-2.56322.30177-3.84375.5l-.125.0312c-1.09275.17033-2.19022.36224-3.28125.5625l-.6875.125 57.28125,40.25 3-2.65625 4.96875,1.4375-57.3125-40.25z"/>
    <path d="m712.4739-278.97291c.11106,1.00193.24731,2.00646.375,3 .0345.26877.0577.54426.0937.8125 .0467.33332.10704.66748.15625,1 .13158.92143.25066,1.83342.40625,2.75h.0312l55.34375,38.875 .21875-.5625c-2.23457-2.37897-4.022-5.10718-2.65625-7.96875l-53.96875-37.90625z"/>
    <path d="m814.16-439.75c-2.1267 0.73525-4.2405 1.5593-6.3438 2.4062l58.656 41.188 3.625-4.2812-55.938-39.312z"/>
    <path d="m854.19-446.72c-2.3623 7e-3 -4.7263 0.0979-7.0938 0.25l55.188 38.781 1.8438-1.4375 6.25 2.25 1.4062-0.96875-55.312-38.844c-0.75683-0.013-1.5235-0.0334-2.2812-0.0312z"/>
    <path d="m713.19-315.13c-0.30924 2.1016-0.56482 4.1878-0.78125 6.2812l52.938 37.188 2.5625-3.25-1.1875-2.625-53.531-37.594z"/>
    <path d="m783.44-424.66c-1.664 1.079-3.3062 2.1909-4.9375 3.3438l57.812 40.625 2.625-4.9688-55.5-39z"/>
    <path d="m745.76-390.04c-1.1495 1.4664-2.2687 2.952-3.375 4.4688l54.031 37.969 0.15625-1.5625 4.8125-1.7812-55.625-39.094z"/>
    <path d="m715.19-325.94c-0.44401 1.9923-0.85882 3.9785-1.2188 5.9688l53.188 37.375 2.4688-2.7188-1.1875-3.2188-53.25-37.406z"/>
    <path d="m803.07-435.32c-1.9466 0.86983-3.8933 1.754-5.8125 2.7188l58.625 41.188 3.2812-4.5-56.094-39.406z"/>
    <path d="m711.66-291.79c0.0393 2.3712 0.15326 4.7192 0.3125 7.0625l52.844 37.125c-0.5633-2.3269 0.49614-3.6056 1.6875-5.6562z"/>
    <path d="m766.63-412.04c-1.4379 1.246-2.8491 2.5364-4.25 3.8438l56.5 39.688 1.4688-4.2812 1.75-0.28125-55.469-38.969z"/>
    <path d="m729.47-364.82c-0.88023 1.6846-1.7178 3.3653-2.5312 5.0625l53.156 37.344 4.125-2.5625-0.0625-1.4062-54.688-38.438z"/>
    <path d="m711.97-303.79c-0.15114 2.2158-0.23345 4.4254-0.28125 6.625l52.469 36.875 2.8438-4.1875-0.5625-1.0312-54.469-38.281z"/>
    <path d="m826.47-443.32c-2.3545 0.56343-4.7258 1.1747-7.0625 1.875l58.312 40.969 3.5625-3.6875 1.3438 0.28125-56.156-39.438z"/>
    <path d="m759.13-405.07c-1.3362 1.321-2.6402 2.6848-3.9375 4.0625l55.719 39.125 0.9375-3.5312 2.8125-0.65625-55.531-39z"/>
    <path d="m792.82-430.29c-1.7878 0.97824-3.5547 2.0333-5.3125 3.0938l58.312 40.969 2.9688-4.75-55.969-39.312z"/>
    <path d="m741.6-208.04 7.2188 10.312 70.312 49.375c-0.8048-0.62374-1.6164-1.2361-2.4062-1.875-0.5934-0.4794-1.1651-0.98107-1.75-1.4688-0.3794-0.31672-0.7492-0.64851-1.125-0.96875-0.8894-0.75686-1.787-1.5047-2.6562-2.2812-0.072-0.0641-0.14725-0.12323-0.21875-0.1875-0.9004-0.80757-1.7778-1.6398-2.6562-2.4688l-0.15625-0.625-0.75-0.25c-2.1865-2.1003-4.3028-4.2402-6.3438-6.4688l-0.21875-1.4062-1.625-0.65625c-0.7495-0.85126-1.4888-1.6931-2.2188-2.5625-0.086-0.10249-0.1645-0.20977-0.25-0.3125-0.6335-0.75903-1.2588-1.5408-1.875-2.3125-17.761-11.582-35.414-24.464-53.281-35.844z"/>
    <path d="m721.19-346.19c-0.67501 1.819-1.3041 3.6433-1.9062 5.4688l53.312 37.469 2.8125-2.3438-0.59375-2.9062-53.625-37.688z"/>
    <path d="m774.7239-418.56666-.78125.59375c-.23635.18066-.48089.35182-.71875.53125l-.0625.0625-.0312.0312c-.0474.0368-.10883.0569-.15625.0937-.16064.11911-.31118.25157-.46875.375-.80106.62462-1.5851,1.26176-2.375,1.90625l57.21875,40.21875 2.09375-4.84375 .65625-.0625-55.375-38.90625z"/>
    <path d="m725.06765-355.69166c-.34676.77777-.6932,1.56229-1.03125,2.34375-.14883.34404-.29149.68689-.4375,1.03125-.15281.36482-.31893.72853-.46875,1.09375-.10708.25928-.20778.52205-.3125.78125l53.28125,37.4375 3.34375-2.4375-.28125-2.21875-54.09375-38.03125z"/>
    <path d="m717.88-336.29c-0.56624 1.9057-1.1057 3.8105-1.5938 5.7188l53.312 37.438 2.5312-2.4062-0.9375-3.2812-53.312-37.469z"/>
    <path d="m864.76-446.25 50.938 35.781 0.0937-0.0625 6.0625 2.6562 3.5-1.25-52.656-36.75c-4.1039-0.86632-3.7633 9e-3 -7.9375-0.375z"/>
    <path d="m881.01-444.5c24.21 17.061 48.463 34.061 72.781 50.969l3.3125 0.15625 2.25-1-70.406-49.75c-4.1039-0.86632-3.7633 9e-3 -7.9375-0.375z"/>
    <path transform="translate(393.15 -674.27)" d="m507.125,232.25 3,.375-3-.375zm-.5.125 63.125,44.5-63.125-44.5z"/>
   </g>
  </g>
  <path d="m567.52 535.25c-44.371 0.12692-90.259 27.451-115.67 73.438-34.602 62.62-18.105 136.18 36.87 164.29s127.61 0.11657 162.21-62.504 18.075-136.18-36.9-164.29c-14.603-7.4667-30.46-10.98-46.509-10.934zm-10.844 23.013c12.538-0.0355 24.919 2.6635 36.327 8.4342 42.948 21.725 55.86 78.569 28.827 126.97s-83.776 70.041-126.72 48.316-55.83-78.569-28.797-126.97c19.852-35.541 55.702-56.652 90.367-56.75z" fill="url(#ag)"/>
  <path d="m559.42 558.26c-0.46426 9.6e-4 -0.92097 0.0215-1.3856 0.0301 12.078 0.15575 23.972 2.8398 34.972 8.4041 42.948 21.725 55.86 78.569 28.827 126.97s-83.776 70.041-126.72 48.316c-27.505-13.913-42.663-42.251-42.924-73.528-0.50238 32.886 15.145 62.911 44.069 77.475 44.075 22.192 102.3 0.097 130.04-49.34s14.495-107.51-29.58-129.71c-11.707-5.8948-24.424-8.6512-37.291-8.615z" fill="#111"/>
  <path transform="matrix(.96391 0 0 .96391 23.753 27.657)" d="m564.12 526.59c-3.3242 0.01-6.6365 0.19976-9.9688 0.5 18.584-1.2214 37.098 2.1723 53.969 10.844 55.586 28.571 72.269 103.35 37.281 167s-108.41 92.071-164 63.5c-42.558-21.875-62.307-70.817-53.531-121.12-10.012 52.14 10.192 103.25 54.5 125.91 57.033 29.162 132.38 0.12093 168.28-64.844s18.751-141.28-38.281-170.44c-15.149-7.7463-31.6-11.391-48.25-11.344z" fill="url(#am)" opacity=".5674"/>
  <path d="m621.83 693.67c-27.033 48.397-83.764 70.018-126.71 48.293s-55.851-78.57-28.818-126.97 83.764-70.018 126.71-48.293 55.851 78.57 28.818 126.97z" fill="url(#bs)"/>
  <path transform="matrix(.96391 0 0 .96391 23.753 27.657)" d="m532.78 556.94c-7.0614 0.0203-14.174 1.041-21.156 3.0312-21.001 9.7767-39.87 26.764-52.5 49.375-11.481 20.554-16.041 42.579-14.344 62.969 4.7268 19.571 16.656 36.251 34.812 45.562 37.111 19.033 86.11 0.0867 109.47-42.312s12.236-92.186-24.875-111.22c-9.8577-5.0556-20.572-7.4373-31.406-7.4062z" fill="url(#bw)" opacity=".4181"/>
  <path d="m581.91 670.22c-16.787 29.662-52.017 42.914-78.688 29.599s-34.683-48.155-17.896-77.817 52.017-42.914 78.688-29.599 34.683 48.155 17.896 77.817z" fill="url(#bu)" opacity=".7543" stroke="url(#ah)" stroke-width="1.9278"/>
  <path transform="matrix(.96391 0 0 .96391 23.753 27.657)" d="m548.97 552.38c-0.55008 2e-3 -1.1056 0.0188-1.6562 0.0312 11.183 0.26391 22.214 2.9154 32.406 8.1875 40.77 21.089 53.005 76.271 27.344 123.25s-79.511 67.964-120.28 46.875c-25.849-13.371-40.224-40.469-40.75-70.469-0.37991 31.973 14.61 61.113 42.281 75.281 42.304 21.66 98.185 0.0945 124.81-48.156s13.929-104.9-28.375-126.56c-11.237-5.7533-23.431-8.4729-35.781-8.4375z" fill="url(#ak)" opacity=".2759"/>
  <path d="m555.54 657.05c-7.6219 13.467-23.617 19.484-35.727 13.439s-15.747-21.864-8.1252-35.331 23.617-19.484 35.727-13.439 15.747 21.864 8.1252 35.331z" fill="url(#ai)"/>
  <path d="m558.64 555.87c-36.077 0.10152-73.389 21.949-94.05 58.732-28.135 50.087-14.728 108.91 29.971 131.4s103.75 0.0835 131.89-50.003 14.697-108.91-30.002-131.4c-11.873-5.9722-24.759-8.7654-37.808-8.7287zm-0.3135 2.4939c12.722-0.0358 25.292 2.6881 36.868 8.5105 43.578 21.92 56.647 79.295 29.218 128.13s-84.988 70.645-128.57 48.725-56.678-79.295-29.25-128.13c20.143-35.86 56.558-57.136 91.73-57.235z" fill="url(#bv)"/>
  <path transform="matrix(.96391 0 0 .96391 23.753 27.657)" d="m551.7 652.96c-7.9073 13.972-24.501 20.213-37.064 13.942s-16.337-22.682-8.4294-36.654 24.501-20.213 37.064-13.942 16.337 22.682 8.4294 36.654z" fill="url(#aj)" opacity=".1379"/>
  <path d="m567.88 532.48c-45.354 0.12973-92.247 28.075-118.22 75.081-35.369 64.008-18.504 139.18 37.689 167.91s130.41 0.1267 165.78-63.881 18.474-139.18-37.718-167.91c-14.926-7.6322-31.121-11.247-47.526-11.2zm-0.62222 4.8c15.786-0.0451 31.384 3.4109 45.748 10.755 54.075 27.65 70.332 100 36.296 161.6s-105.48 89.131-159.55 61.481-70.302-100-36.266-161.6c24.995-45.234 70.132-72.112 113.78-72.236z" fill="url(#ap)"/>
  <path d="m183.3 410.78c0 3.2473-4.5723 5.8798-10.213 5.8798s-10.213-2.6325-10.213-5.8798 4.5723-5.8798 10.213-5.8798 10.213 2.6325 10.213 5.8798z" fill="url(#ac)"/>
  <path d="m180.11 410.27c0-2.512-3.5369-4.5484-7.9-4.5484s-7.9 2.0364-7.9 4.5484 3.5369 4.5484 7.9 4.5484 7.9-2.0364 7.9-4.5484z" fill="url(#ad)" opacity=".44"/>
  <path d="m180.98 410.27c0 2.512-3.5369 4.5484-7.9 4.5484s-7.9-2.0364-7.9-4.5484 3.537-4.5484 7.9-4.5484 7.9 2.0364 7.9 4.5484z" fill="url(#ae)" opacity=".44"/>
  <path d="m219.05 404.56c0 3.1281-4.4044 5.6639-9.8376 5.6639s-9.8376-2.5358-9.8376-5.6639 4.4044-5.6639 9.8376-5.6639 9.8376 2.5358 9.8376 5.6639z" fill="url(#z)"/>
  <path d="m217.11 404.27c0-2.512-3.5369-4.5484-7.9-4.5484s-7.9 2.0364-7.9 4.5484 3.5369 4.5484 7.9 4.5484 7.9-2.0364 7.9-4.5484z" fill="url(#aa)" opacity=".44"/>
  <path d="m217.11 404.27c0 2.512-3.5369 4.5484-7.9 4.5484s-7.9-2.0364-7.9-4.5484 3.5369-4.5484 7.9-4.5484 7.9 2.0364 7.9 4.5484z" fill="url(#ab)" opacity=".44"/>
  <path d="m541.54 499.6c-80.942 0-149.42 67.783-149.42 148.33 0 53.325 26.98 97.465 69.904 122.9 21.479 12.728 44.036 20.858 70.438 17.646-18.269 0.52547-36.374-3.1713-52.976-11.63-59.031-30.074-76.748-108.75-39.592-175.75 27.286-49.199 76.548-78.449 124.19-78.585 17.233-0.0491 34.246 3.7342 49.926 11.723 10.296 5.2455 19.336 11.965 27.048 19.848-3.3619-7.3433-9.8471-11.907-15.211-17.797-5.2458-5.7608-9.3266-12.883-16.483-16.996-21.538-12.379-41.17-19.695-67.829-19.695z" fill="url(#an)"/>
  <path d="m538.41 509.47c-59.077 1.1403-114.19 41.424-134.83 96.526-19.846 50.774-8.0726 112.74 31.3 151.07 4.747 2.7747 8.8825 5.1134 3.25-0.6875-35.983-45.383-39.659-112.84-10.438-162.69 28.209-50.334 86.045-82.969 144.09-77.781 5.6266 0.49331 11.276 1.3643 16.719 2.6562-15.813-6.7484-32.889-9.6023-50.094-9.0938z" fill="url(#al)" opacity=".7628"/>
  <path d="m104.23 391.54c-5.5228 0-10 4.2533-10 9.5 0 3.0987 1.5523 5.8596 3.9688 7.5938-0.8492-1.3963-1.3438-3.0214-1.3438-4.75 0-5.2467 4.4772-9.5 10-9.5 2.261 0 4.3562 0.70419 6.0312 1.9062-1.7284-2.842-4.9529-4.75-8.6562-4.75z" fill="url(#bp)"/>
  <g transform="matrix(1.0063 -.09186 .09383 .98515 0 0)" fill="url(#ca)" font-family="URW Palladio L" font-size="31.12" font-weight="500" letter-spacing="0" word-spacing="0">
   <path d="m356.85 420.47h3.0694v9.5882l10.181-9.5882h3.9508l-11.26 10.576 12.065 12.111h-4.0419l-10.895-10.925v10.925h-3.0694v-22.686"/>
   <path d="m377.16 426.13h2.7959v17.019h-2.7959v-17.019m0-6.6251h2.7959v3.5405h-2.7959v-3.5405"/>
   <path d="m399.93 432.88v10.272h-2.7959v-10.181c-1e-5 -1.6107-0.31405-2.8162-0.9421-3.6164s-1.5702-1.2004-2.8263-1.2004c-1.5094 2e-5 -2.6997 0.4812-3.5709 1.4436s-1.3068 2.2742-1.3068 3.9356v9.6186h-2.8111v-17.019h2.8111v2.644c0.66858-1.0231 1.4537-1.788 2.3553-2.2945 0.9117-0.50649 1.9602-0.75974 3.1454-0.75976 1.9551 2e-5 3.4341 0.60783 4.437 1.8234 1.0029 1.2055 1.5043 2.9833 1.5043 5.3335"/>
   <path d="m412.14 428.09c-1.4993 2e-5 -2.6845 0.58757-3.5557 1.7626-0.8712 1.165-1.3068 2.7655-1.3068 4.8017s0.43053 3.6418 1.2916 4.8169c0.87119 1.165 2.0615 1.7474 3.5709 1.7474 1.4891 0 2.6693-0.58755 3.5405-1.7626s1.3068-2.7756 1.3068-4.8017c-1e-5 -2.0159-0.43561-3.6114-1.3068-4.7865-0.87121-1.1852-2.0514-1.7778-3.5405-1.7778m0-2.3704c2.4312 2e-5 4.3408 0.79017 5.7286 2.3704s2.0817 3.7684 2.0817 6.5643c-2e-5 2.7858-0.69393 4.9739-2.0817 6.5643-1.3878 1.5803-3.2974 2.3704-5.7286 2.3704-2.4414 0-4.356-0.79015-5.7438-2.3704-1.3777-1.5904-2.0666-3.7785-2.0666-6.5643 0-2.7959 0.68885-4.984 2.0666-6.5643 1.3878-1.5803 3.3024-2.3704 5.7438-2.3704"/>
   <path d="m438.71 432.88v10.272h-2.7959v-10.181c-1e-5 -1.6107-0.31404-2.8162-0.9421-3.6164s-1.5702-1.2004-2.8263-1.2004c-1.5094 2e-5 -2.6997 0.4812-3.5709 1.4436s-1.3068 2.2742-1.3068 3.9356v9.6186h-2.8111v-17.019h2.8111v2.644c0.66859-1.0231 1.4537-1.788 2.3553-2.2945 0.9117-0.50649 1.9602-0.75974 3.1454-0.75976 1.9551 2e-5 3.4341 0.60783 4.437 1.8234 1.0029 1.2055 1.5043 2.9833 1.5043 5.3335"/>
  </g>
 </g>
</svg>
